<svg xmlns="http://www.w3.org/2000/svg" xmlns:xlink="http://www.w3.org/1999/xlink" version="1.1" x="0px" y="0px" viewBox="0 0 496 399.646" fill="#000000" style="enable-background:new 0 0 496 399.646;" xml:space="preserve"><g><path d="M493.279,211.144L427.028,37.68C418.42,15.145,396.427,0,372.303,0H123.697C99.571,0,77.579,15.143,68.972,37.68   L2.722,211.143C0.916,215.868,0,220.831,0,225.892c0,53.77,11.631,112.569,18.564,142.834c4.171,18.205,20.132,30.92,38.814,30.92   c2.126,0,4.279-0.174,6.401-0.519c12.061-1.954,77.623-11.707,184.22-11.707s172.159,9.753,184.221,11.708   c2.121,0.344,4.274,0.518,6.4,0.518c18.683,0,34.644-12.715,38.814-30.921C484.369,338.461,496,279.661,496,225.892   C496,220.831,495.084,215.868,493.279,211.144z M380.303,16.771c14.251,2.766,26.49,12.771,31.778,26.617l35.42,92.74h-29.016   v-10.258c0-20.091-5.371-39.084-15.124-53.482c-6.453-9.527-14.348-16.392-23.059-20.234V16.771z M402.485,125.871v10.258H371.55   v-45.29c0-4.418-3.582-8-8-8s-8,3.582-8,8v45.29h-14.097v-10.258c0-14.066-2.641-27.586-7.567-39.376   c7.448-13.786,18.353-21.914,29.664-21.914C384.655,64.581,402.485,92.648,402.485,125.871z M256,16h108.303v32.607   c-0.251-0.005-0.501-0.026-0.753-0.026c-14.636,0-28.39,8.018-38.521,21.983c-10.264-14.185-23.861-21.983-38.511-21.983   c-11.072,0-21.64,4.589-30.518,12.869V16z M256,88.156c7.454-14.785,18.763-23.575,30.518-23.575   c21.105,0,38.936,28.067,38.936,61.29v10.258h-30.936v-45.29c0-4.418-3.582-8-8-8s-8,3.582-8,8v45.29H256V88.156z M256,220.717   c73.122-14.001,120.417-12.063,140.604,5.786c6.908,6.107,10.571,14.242,11.106,24.724H256V220.717z M312.153,196.626   c10.01-14.658,27.292-20.541,41.289-17.422c5.53,1.232,16.997,5.479,18.9,19.539C356.184,195.415,336.166,194.715,312.153,196.626z    M131.697,16H240v34.559c-11.646-6.292-22.705-8.548-33.011-6.675c-8.253,1.5-14.347,5.421-18.387,8.984   c-8.354-6.106-16.979-8.64-25.707-7.539c-11.235,1.416-19.574,8.706-24.26,13.995c-2.396-0.923-4.706-1.635-6.938-2.157V16z    M35.049,226.9c-3.687,6.246-5.072,13.635-4.17,22.058C22.113,244.969,16,236.134,16,225.892c0-3.102,0.561-6.143,1.668-9.039   L83.919,43.389c5.288-13.846,17.527-23.852,31.778-26.617v40.47c-2.173,0.664-4.216,1.626-6.125,2.889   c-10.287,6.801-12.784,19.971-13.32,27.805c-9.494,4.233-14.098,10.662-16.321,15.686c-4.51,10.184-2.648,21.255-0.507,28.348   c-8.564,5.249-14.215,12.012-16.835,20.17c-2.412,7.511-1.652,14.687-0.266,20.026c-7.456,3.46-11.476,8.589-13.626,12.795   c-5.276,10.324-3.475,22.423-1.289,30.242C43.277,217.411,38.508,221.04,35.049,226.9z M47.428,251.227   c-1.427-6.647-0.993-12.036,1.32-16.057c3.408-5.926,10.253-7.437,10.246-7.437c2.405-0.452,4.466-1.99,5.603-4.157   s1.214-4.745,0.219-6.98c-1.858-4.174-5.814-16.69-1.855-24.384c1.892-3.676,5.614-6.034,11.382-7.211   c2.52-0.515,4.639-2.209,5.695-4.554c1.056-2.346,0.92-5.056-0.365-7.283c-0.045-0.078-4.401-8.185-1.85-16.133   c1.811-5.636,6.813-10.348,14.87-14.004c1.957-0.889,3.468-2.539,4.204-4.558c0.736-2.02,0.622-4.263-0.304-6.201   c-1.716-3.594-5.422-14.589-2.013-22.214c1.858-4.157,5.727-7.045,11.825-8.827c3.557-1.04,5.934-4.411,5.744-8.112   c-0.199-3.899,0.524-15.88,6.265-19.649c3.707-2.435,10.514-1.418,19.165,2.865c3.699,1.833,8.187,0.548,10.356-2.966   c0.067-0.108,6.991-10.905,16.961-12.162c5.906-0.748,12.252,2.113,18.875,8.494c1.736,1.672,4.132,2.477,6.53,2.178   c2.394-0.295,4.526-1.654,5.805-3.699c0.042-0.068,4.524-6.874,13.743-8.549c8.494-1.547,18.865,1.832,30.15,9.752v181.848H47.428z    M95.968,304H73.807c-4.418,0-8-3.582-8-8s3.582-8,8-8h22.161c4.418,0,8,3.582,8,8S100.386,304,95.968,304z M422.193,304H131.451   c-4.418,0-8-3.582-8-8s3.582-8,8-8h290.742c4.418,0,8,3.582,8,8S426.611,304,422.193,304z M434.425,251.227h-10.717   c-0.595-15.195-6.115-27.525-16.506-36.711c-3.935-3.479-8.55-6.477-13.853-8.997c11.147-10.903,24.701-12.326,33.869-7.315   C438.061,204.128,446.006,221.477,434.425,251.227z M454.665,251.227h-3.234c11.915-36.01-0.761-58.442-16.54-67.064   c-13.436-7.342-32.338-6.677-48.188,5.876c-4.088-13.351-14.62-23.071-29.78-26.45c-12.399-2.764-26.279-0.641-38.079,5.823   c-8.412,4.609-19.334,13.347-25.825,29.184c-11.544,1.436-23.875,3.382-37.018,5.843v-52.309h197.613l24.72,64.725   c1.106,2.896,1.667,5.937,1.667,9.038C480,239.861,468.635,251.227,454.665,251.227z"/><path d="M199.559,116.301c-4.254-1.201-8.672,1.276-9.871,5.527l-5.677,20.129c-1.199,4.253,1.275,8.672,5.527,9.871   c0.727,0.205,1.457,0.303,2.176,0.303c3.492,0,6.701-2.305,7.695-5.83l5.677-20.129C206.285,121.919,203.811,117.5,199.559,116.301   z"/><path d="M154.047,139.3c1.583,1.828,3.812,2.765,6.054,2.765c1.854,0,3.719-0.642,5.231-1.95c3.341-2.892,3.705-7.943,0.814-11.285   l-16.805-19.419c-2.893-3.341-7.944-3.705-11.285-0.814c-3.341,2.892-3.705,7.943-0.814,11.285L154.047,139.3z"/><path d="M145.351,145.17c-2.383-3.721-7.33-4.808-11.052-2.423l-17.227,11.032c-3.721,2.383-4.806,7.331-2.423,11.052   c1.527,2.385,4.108,3.687,6.745,3.687c1.477,0,2.971-0.408,4.307-1.264l17.227-11.032   C146.648,153.839,147.733,148.891,145.351,145.17z"/><path d="M157.075,159.369l-18.354,12.774c-3.626,2.524-4.52,7.51-1.996,11.137c1.555,2.233,4.044,3.431,6.573,3.431   c1.577,0,3.171-0.466,4.563-1.435l18.354-12.774c3.626-2.524,4.52-7.51,1.996-11.137   C165.688,157.739,160.701,156.848,157.075,159.369z"/></g></svg>