<svg xmlns="http://www.w3.org/2000/svg" xmlns:xlink="http://www.w3.org/1999/xlink" version="1.1" x="0px" y="0px" viewBox="0 0 91 91" enable-background="new 0 0 91 91" xml:space="preserve"><g><path d="M42.01,23.508c-1.258,0-2.279,1.02-2.279,2.277v30.355c0,1.26,1.021,2.28,2.279,2.28c1.257,0,2.279-1.021,2.279-2.28   V25.785C44.289,24.528,43.267,23.508,42.01,23.508z"/><path d="M49.16,23.508c-1.26,0-2.28,1.02-2.28,2.277v30.355c0,1.26,1.021,2.28,2.28,2.28c1.257,0,2.277-1.021,2.277-2.28V25.785   C51.438,24.528,50.417,23.508,49.16,23.508z"/><path d="M45.584,0.25C20.587,0.25,0.25,20.587,0.25,45.584s20.337,45.334,45.334,45.334s45.335-20.337,45.335-45.334   S70.581,0.25,45.584,0.25z M53.271,85.623v-7.986c0.297-2.993,0.748-3.335,2.576-4.732c0.93-0.711,2.085-1.594,3.481-3.008   c4.192-4.244,3.062-11.752,2.932-12.502l-4.078-31.898c-0.159-1.249-1.327-2.149-2.549-1.97c-1.249,0.159-2.131,1.3-1.972,2.547   l4.09,31.991c0.261,1.537,0.514,6.42-1.667,8.629c-1.17,1.188-2.146,1.932-3.005,2.589c-2.398,1.831-3.894,3.199-4.356,8.025   c-0.007,0.073-0.009,0.146-0.009,0.22v8.701c-1.035,0.079-2.076,0.133-3.131,0.133c-1.053,0-2.095-0.054-3.128-0.133v-8.701   c0-0.074-0.004-0.146-0.011-0.217c-0.459-4.829-1.956-6.197-4.355-8.028c-0.86-0.657-1.834-1.401-3.005-2.589   c-2.173-2.2-1.939-6.979-1.654-8.723l4.076-31.897c0.161-1.247-0.722-2.388-1.973-2.547c-1.229-0.179-2.391,0.721-2.549,1.97   l-4.063,31.808c-0.142,0.841-1.274,8.349,2.918,12.593c1.396,1.414,2.554,2.299,3.484,3.008c1.826,1.397,2.279,1.739,2.574,4.732   v7.986C19.077,82.018,4.807,65.44,4.807,45.584c0-22.484,18.293-40.777,40.777-40.777c22.485,0,40.777,18.292,40.777,40.777   C86.361,65.44,72.092,82.018,53.271,85.623z"/></g></svg>