<svg xmlns="http://www.w3.org/2000/svg" xmlns:xlink="http://www.w3.org/1999/xlink" version="1.1" x="0px" y="0px" viewBox="0 0 100 100" enable-background="new 0 0 100 100" xml:space="preserve"><path fill="#000000" d="M50,5C25.147,5,5,25.147,5,50c0,24.853,20.147,45,45,45s45-20.147,45-45C95,25.147,74.853,5,50,5z   M50,25.226c9.941,0,18,8.219,18,18.357S59.941,61.94,50,61.94s-18-8.219-18-18.357S40.059,25.226,50,25.226z M50,89  c-10.781,0-20.553-4.398-27.619-11.493C28.275,71.782,38.442,68,50,68c11.558,0,21.725,3.782,27.619,9.507  C70.553,84.602,60.781,89,50,89z"/></svg>