<svg xmlns="http://www.w3.org/2000/svg" xmlns:xlink="http://www.w3.org/1999/xlink" version="1.1" x="0px" y="0px" viewBox="0 0 100 100" enable-background="new 0 0 100 100" xml:space="preserve"><path d="M78.521,47.5H52.5V21.479c0-1.381-1.119-2.5-2.5-2.5s-2.5,1.119-2.5,2.5V47.5H21.479c-1.381,0-2.5,1.119-2.5,2.5  s1.119,2.5,2.5,2.5H47.5v26.021c0,1.381,1.119,2.5,2.5,2.5s2.5-1.119,2.5-2.5V52.5h26.021c1.381,0,2.5-1.119,2.5-2.5  S79.901,47.5,78.521,47.5z M83.029,16.971C74.207,8.147,62.477,3.289,50,3.289S25.793,8.147,16.971,16.971  c-18.213,18.212-18.213,47.847,0,66.059C25.793,91.853,37.523,96.711,50,96.711s24.207-4.858,33.029-13.682  C101.242,64.817,101.242,35.183,83.029,16.971z M79.494,79.494C71.615,87.372,61.142,91.711,50,91.711s-21.615-4.339-29.494-12.217  c-16.263-16.264-16.263-42.725,0-58.988C28.385,12.628,38.858,8.289,50,8.289s21.615,4.339,29.494,12.217  C95.757,36.77,95.757,63.23,79.494,79.494z"/></svg>