<svg xmlns="http://www.w3.org/2000/svg" viewBox="0 0 512 512" x="0px" y="0px"><path d="M160,229.943V320a8,8,0,0,0,8,8H392a8,8,0,0,0,8-8V229.943a56,56,0,1,0-67.429-89.317,56.041,56.041,0,0,0-105.141,0A56,56,0,1,0,160,229.943ZM384,312H176V296H384ZM192,144a39.945,39.945,0,0,1,33.389,17.979,8,8,0,0,0,14.663-4.013,40,40,0,0,1,79.9,0,8,8,0,0,0,14.663,4.014,40,40,0,1,1,53.382,56.66A8,8,0,0,0,384,225.562V280H328V248a8,8,0,0,0-16,0v32H248V248a8,8,0,0,0-16,0v32H176V225.562a8,8,0,0,0-3.993-6.923A40,40,0,0,1,192,144Z"/><path d="M464,16H64A24.028,24.028,0,0,0,40,40V472a24.028,24.028,0,0,0,24,24H464a8,8,0,0,0,8-8V24A8,8,0,0,0,464,16ZM56,472V40a8.009,8.009,0,0,1,8-8H88V480H64A8.009,8.009,0,0,1,56,472Zm400,8H104V32H456Z"/><path d="M320,376a8,8,0,0,0,0-16H240a8,8,0,0,0,0,16Z"/><path d="M360,392H200a8,8,0,0,0,0,16H360a8,8,0,0,0,0-16Z"/></svg>