<svg xmlns="http://www.w3.org/2000/svg" data-name="Layer 1" viewBox="0 0 95 118.75" x="0px" y="0px"><defs><style>.cls-1{fill-rule:evenodd;}</style></defs><title>a</title><path class="cls-1" d="M23.262,65.293a.312.312,0,0,1,.03.024c5.987,4.817,13.426,11.584,23.49,20.941a1.052,1.052,0,0,0,1.436,0C58.278,76.9,65.719,70.134,71.7,65.317a.144.144,0,0,0,.03-.024c5.553-4.8,12.47-11.252,16.69-18.578,4.81-8.345,5.349-16.533,1.606-24.332A24.546,24.546,0,0,0,47.5,19.358a24.545,24.545,0,0,0-42.53,3.025c-3.742,7.8-3.2,15.987,1.607,24.332C10.8,54.041,17.709,60.493,23.262,65.293Z"/><text x="0" y="110" fill="#000000" font-size="5px" font-weight="bold" font-family="'Helvetica Neue', Helvetica, Arial-Unicode, Arial, Sans-serif">Created by rukanicon</text><text x="0" y="115" fill="#000000" font-size="5px" font-weight="bold" font-family="'Helvetica Neue', Helvetica, Arial-Unicode, Arial, Sans-serif">from the Noun Project</text></svg>
