<svg xmlns="http://www.w3.org/2000/svg" xmlns:xlink="http://www.w3.org/1999/xlink" version="1.1" x="0px" y="0px" viewBox="0 0 100 100" fill="#000000" style="enable-background:new 0 0 100 100;" xml:space="preserve"><path d="M49.9906883,92.5177689c-0.6198997,0-1.2148056-0.2464905-1.6529007-0.6850739L10.4675503,53.9433479  c-5.1356115-5.1351242-7.9675484-11.9706802-7.9675484-19.2409058s2.8319371-14.1057816,7.9734287-19.2467842  c5.1410027-5.1414919,11.9692097-7.9734292,19.2276726-7.9734292c7.2707138,0,14.1062698,2.8319373,19.2472725,7.9734292  l1.0423126,1.0418234l1.0418243-1.0418234c5.1414909-5.1414919,11.9770508-7.9734292,19.2472725-7.9734292  c7.2707138,0,14.1057816,2.8319373,19.2467804,7.9734292C94.6680603,20.5966606,97.5,27.4322205,97.5,34.7024422  c0,7.2697334-2.832428,14.1057816-7.9734344,19.2467842L51.6435928,91.832695  C51.2054977,92.2712784,50.6105881,92.5177689,49.9906883,92.5177689z M29.7011032,12.158185  c-6.0093517,0-11.6639156,2.3448381-15.9218674,6.6032801c-4.258441,4.25844-6.6037693,9.9198647-6.6037693,15.9409771  s2.3453283,11.6825371,6.6037693,15.940979l2.6819859,2.7010956L49.9906883,86.873497l36.2300758-36.2300758l0,0  c4.2584381-4.2584419,6.6037674-9.9198647,6.6037674-15.940979s-2.3453293-11.6825371-6.6037674-15.9409771  c-4.2579498-4.2584419-9.9193726-6.6032801-15.940979-6.6032801c-6.0215988,0-11.6830254,2.3448381-15.9414673,6.6032801  l-2.694725,2.694725c-0.9124527,0.9134331-2.3923721,0.9129429-3.3058052,0.0004902l-2.6952171-2.694725  C41.3846207,14.5030231,35.7231941,12.158185,29.7011032,12.158185z"/></svg>